<svg id="Layer_1" data-name="Layer 1" xmlns="http://www.w3.org/2000/svg" xmlns:xlink="http://www.w3.org/1999/xlink" viewBox="0 0 488.3 434.1"><defs><style>.cls-1{fill:none;}.cls-2{fill:#dfdfdf;}.cls-3{clip-path:url(#clip-path);}.cls-4{fill:#86bcdb;}.cls-5{fill:#dedbda;}.cls-6{fill:#101111;}.cls-14,.cls-7{fill:#fff;}.cls-8{fill:#b28f7e;}.cls-9{fill:#231815;}.cls-10{fill:#3a80b1;}.cls-11{fill:#efb519;}.cls-12{fill:#dc4335;}.cls-13{fill:#4679bc;}.cls-14,.cls-16{opacity:0.2;}.cls-14{isolation:isolate;}.cls-15{fill:#1e2b6d;fill-opacity:0.2;}.cls-17{fill:#b43822;}.cls-18{fill:#3e2723;}.cls-19{fill:url(#名称未設定グラデーション_3);}</style><clipPath id="clip-path" transform="translate(-5.58 -33)"><path class="cls-1" d="M493.83,252.77c0-.9,0-1.8,0-2.7h0c0-.56-.06-1.11-.11-1.67,0-.09,0-.19,0-.28A32.43,32.43,0,0,0,493,244c0-.14,0-.28-.08-.42a32.43,32.43,0,0,0-1.24-3.89c-.05-.14-.09-.28-.14-.42a32.51,32.51,0,0,0-2-4.08l-65.38-114h0L384.38,51.75l-.57-1c-.06-.1-.13-.18-.19-.28a32.46,32.46,0,0,0-28.09-16.12H144a32.56,32.56,0,0,0-28.25,16.37L9.92,235.21a32.55,32.55,0,0,0-2,4.12l-.05.15a32.45,32.45,0,0,0-1.31,4.15c0,.12,0,.25-.07.38a32.54,32.54,0,0,0-.68,4c0,.2,0,.4,0,.61,0,.52-.08,1-.1,1.56,0,0,0-.1,0-.15s0,.18,0,.27c0,.36-.07.72-.07,1.09s.06.73.07,1.1c0,.09,0,.18,0,.26s0-.1,0-.15c0,.42,0,.84.08,1.26s0,.7.07,1a32.46,32.46,0,0,0,.55,3.26c.08.39.13.78.23,1.16a32.55,32.55,0,0,0,1,3.15c.13.36.22.73.37,1.09a32.54,32.54,0,0,0,1.94,4l1,1.69L115.71,452.09A32.53,32.53,0,0,0,144,468.46H355.54a32.68,32.68,0,0,0,28.27-16.4L489.61,267.59a32.42,32.42,0,0,0,4.22-14.82h0Z"/></clipPath><radialGradient id="名称未設定グラデーション_3" cx="-193.39" cy="370.61" r="375.87" gradientTransform="matrix(1.33, 0, 0, -1.33, 333.64, 556.45)" gradientUnits="userSpaceOnUse"><stop offset="0" stop-color="#fff" stop-opacity="0.1"/><stop offset="1" stop-color="#fff" stop-opacity="0"/></radialGradient></defs><title>gcp-gopher</title><path class="cls-2" d="M324.66,119.84l74.91,130.21L324.63,380.26H174.78L99.84,250.05l74.91-130.21H324.66" transform="translate(-5.58 -33)"/><g class="cls-3"><path class="cls-4" d="M149.53,352.62c-.45,33.47,5.48,68.16,36.44,87.28,10.7,6.61,39.48,10.37,64.54,10.9h.21c25.06-.52,50.39-4.29,61.1-10.9,31-19.12,36.89-53.81,36.44-87.28" transform="translate(-5.58 -33)"/><path class="cls-4" d="M348.25,357.62c-.37-27.81-5.14-54.78-3.6-71.3,2-21.49,3.71-43.32,1.11-58-1.43-8.08,25.52-10,16.63-28.31-7.64-15.73-26.27-1.85-31-6.74-24.06-24.84-53.22-31-76.17-32.13,0,0-10.35-.06-12.65,0-23,.57-52.11,7.29-76.17,32.13-4.74,4.89-23.37-9-31,6.74-8.89,18.31,18.06,20.23,16.63,28.31-2.6,14.69-.88,36.52,1.11,58,1.54,16.52-3.23,43.49-3.6,71.3" transform="translate(-5.58 -33)"/><path class="cls-5" d="M288.85,211.16c-38.31,4.45-33.14,44.47-18.37,57.4,27.55,24.11,56.25,0,53.1-24.4C320.55,220.76,300.75,209.78,288.85,211.16Z" transform="translate(-5.58 -33)"/><circle class="cls-6" cx="285.8" cy="212.58" r="13.13"/><circle class="cls-7" cx="282.36" cy="207.01" r="4.14"/><path class="cls-8" d="M249,271.69c-18.35,2.71-24.9,8-23.5,16.33,2.28,13.55,45.63,12,46.91.69C273.51,278.93,256.16,270.63,249,271.69Z" transform="translate(-5.58 -33)"/><path class="cls-9" d="M237.11,277.15c-3.11,11.3,24.91,9.58,24.22,2.31-.4-4.2-4.15-9.69-14.11-9.36C243.34,270.22,238.56,271.88,237.11,277.15Z" transform="translate(-5.58 -33)"/><path class="cls-5" d="M238,295.44c-1,.45-2.73,11.67,2.49,12.25,3.56.39,13.31,1.51,15.59,0,4.48-2.87,4-9.81,1.48-11.48C253.42,293.47,239.2,294.91,238,295.44Z" transform="translate(-5.58 -33)"/><path class="cls-5" d="M208.93,211.16c38.31,4.45,33.14,44.47,18.37,57.4-27.55,24.11-56.25,0-53.1-24.4C177.23,220.76,197,209.78,208.93,211.16Z" transform="translate(-5.58 -33)"/><circle class="cls-6" cx="200.82" cy="212.58" r="13.13"/><circle class="cls-7" cx="204.26" cy="207.01" r="4.14"/><path class="cls-10" d="M340.89,202.78c-.67,2.45,2.44,2.12,3.61,9.49.43,2.7,10.29-4,6.29-9C347.51,199.22,341.54,200.39,340.89,202.78Z" transform="translate(-5.58 -33)"/><path class="cls-10" d="M156.89,202.78c.67,2.45-2.44,2.12-3.61,9.49-.43,2.7-10.29-4-6.29-9C150.27,199.22,156.24,200.39,156.89,202.78Z" transform="translate(-5.58 -33)"/><path class="cls-4" d="M343.52,311.49c.09,42.06,11.13-5.86,15.84-12A13.86,13.86,0,0,0,357,280c-6-4.6-9.15,8.5-17.94,9.81C328.15,291.46,343.5,304.82,343.52,311.49Z" transform="translate(-5.58 -33)"/><path class="cls-8" d="M355.57,289.09c-4.42-4.08-6.76-10.91-.73-15.72,7.31-5.83,14.36-5.88,11.75-1.84-.89,1.39,4.28-2.29,5.68-1,4.42,4.08,3.77,12-1.44,17.6S360,293.16,355.57,289.09Z" transform="translate(-5.58 -33)"/><path class="cls-4" d="M155.57,328c8.5-41.19-12.1,3.46-18,8.52A13.86,13.86,0,0,0,136,356.08c4.94,5.73,10.69-6.45,19.56-5.94C166.52,350.78,154.22,334.57,155.57,328Z" transform="translate(-5.58 -33)"/><path class="cls-8" d="M139.29,347.72c3.26,5,3.83,12.25-3.21,15.41-8.53,3.82-15.37,2.12-11.84-1.15,1.21-1.12-4.71,1.15-5.75-.44-3.26-5-.68-12.52,5.78-16.69S136,342.68,139.29,347.72Z" transform="translate(-5.58 -33)"/><path class="cls-8" d="M301.58,446.83c3.9-11,17.61-8,26.44-2,2.37,1.6,3.62,2.42,1.25,4.67-1.59,1.51-5.24,1.08-4.85,1.86,1.54,3.08-11.6,3.41-19.86,1.9C300.73,452.58,300.28,450.5,301.58,446.83Z" transform="translate(-5.58 -33)"/><path class="cls-8" d="M196.2,446.83c-3.9-11-17.61-8-26.44-2-2.37,1.6-3.62,2.42-1.25,4.67,1.59,1.51,5.24,1.08,4.85,1.86-1.54,3.08,11.6,3.41,19.86,1.9C197,452.58,197.5,450.5,196.2,446.83Z" transform="translate(-5.58 -33)"/><path class="cls-8" d="M301.58,446.83c3.9-11,17.61-8,26.44-2,2.37,1.6,3.62,2.42,1.25,4.67-1.59,1.51-5.24,1.08-4.85,1.86,1.54,3.08-11.6,3.41-19.86,1.9C300.73,452.58,300.28,450.5,301.58,446.83Z" transform="translate(-5.58 -33)"/><path class="cls-8" d="M196.2,446.83c-3.9-11-17.61-8-26.44-2-2.37,1.6-3.62,2.42-1.25,4.67,1.59,1.51,5.24,1.08,4.85,1.86-1.54,3.08,11.6,3.41,19.86,1.9C197,452.58,197.5,450.5,196.2,446.83Z" transform="translate(-5.58 -33)"/></g><path class="cls-11" d="M324.66,380.26l-49.94,86.82H143.93a32.56,32.56,0,0,1-28.24-16.37L9.89,266.26a32.58,32.58,0,0,1,0-32.38l40.26-70.17,49.69,86.34,74.91,130.21Z" transform="translate(-5.58 -33)"/><path class="cls-12" d="M489.55,266.26,383.76,450.74a32.53,32.53,0,0,1-28.24,16.37H274.69l49.94-86.82,75-130.24-75-130.21h99.5l65.4,114A32.37,32.37,0,0,1,489.55,266.26Z" transform="translate(-5.58 -33)"/><path class="cls-13" d="M424.16,119.84H174.75L99.84,250.05,50.15,163.68,115.68,49.4A32.53,32.53,0,0,1,143.93,33H355.54A32.6,32.6,0,0,1,383.79,49.4Z" transform="translate(-5.58 -33)"/><path class="cls-14" d="M115.68,52.09a32.53,32.53,0,0,1,28.25-16.37H355.54a32.6,32.6,0,0,1,28.24,16.37l38.84,67.75h1.55L383.79,49.4A32.53,32.53,0,0,0,355.54,33H143.93A32.56,32.56,0,0,0,115.68,49.4L50.15,163.68l.78,1.36Z" transform="translate(-5.58 -33)"/><polyline class="cls-15" points="94.26 217.05 169.17 86.84 418.57 86.84 417.02 84.12 169.17 84.12 94.26 214.34"/><path class="cls-14" d="M9.89,236.57l40.26-70.2,49.69,86.37L174.75,383H323.08l1.58-2.72H174.75L99.84,250.05,50.15,163.68,9.89,233.85a32.77,32.77,0,0,0-4.25,17.56A32.68,32.68,0,0,1,9.89,236.57Z" transform="translate(-5.58 -33)"/><g class="cls-16"><path class="cls-17" d="M276.27,464.36H143.93A32.56,32.56,0,0,1,115.68,448L9.89,263.54a32.68,32.68,0,0,1-4.25-14.84,32.34,32.34,0,0,0,4.25,17.56L115.68,450.74a32.53,32.53,0,0,0,28.25,16.37H274.72Z" transform="translate(-5.58 -33)"/></g><g class="cls-16"><polygon class="cls-18" points="395.55 217.05 320.63 86.84 319.08 86.84 394.02 217.05 395.55 217.05"/><path class="cls-18" d="M489.55,263.54,383.76,448a32.53,32.53,0,0,1-28.25,16.37H276.27l-1.58,2.72h80.82a32.6,32.6,0,0,0,28.24-16.37L489.55,266.26a32.58,32.58,0,0,0,4.25-17.56A32.68,32.68,0,0,1,489.55,263.54Z" transform="translate(-5.58 -33)"/></g><g class="cls-16"><path class="cls-7" d="M424.16,122.53l65.4,114a32.68,32.68,0,0,1,4.25,14.84,32.34,32.34,0,0,0-4.25-17.56l-65.4-114H324.66l1.58,2.72" transform="translate(-5.58 -33)"/><polygon class="cls-7" points="319.08 349.98 395.55 217.05 394.02 217.05 319.08 347.26 269.14 434.08 270.69 434.08 319.08 349.98"/></g><path class="cls-19" d="M489.55,233.85l-65.4-114-40.4-70.45A32.53,32.53,0,0,0,355.51,33H143.93a32.56,32.56,0,0,0-28.25,16.37L9.89,233.85a32.58,32.58,0,0,0,0,32.38L115.68,450.71a32.53,32.53,0,0,0,28.25,16.37H355.54a32.6,32.6,0,0,0,28.24-16.37L489.58,266.23A32.51,32.51,0,0,0,489.55,233.85Z" transform="translate(-5.58 -33)"/></svg>