<svg preserveAspectRatio="xMidYMin" width="427" height="231" fill="none" xmlns="http://www.w3.org/2000/svg"><defs><path d="M30 56.1s-.2-1.5.1-2.8c.3-1.3 0 0 0 0s.2-.9 1-.8c.9.2 0 0 0 0" fill="#8C6E63" fill-rule="nonzero" id="reuse-0"/></defs><style>@keyframes rotate-center1{0%{transform:rotate(0deg)}20%{transform:rotate(359deg)}to{transform:rotate(360deg)}}@keyframes rotate-center2{0%{transform:rotate(0deg)}25%{transform:rotate(359deg)}to{transform:rotate(360deg)}}@keyframes rotate-center3{0%{transform:rotate(0deg)}30%{transform:rotate(359deg)}to{transform:rotate(360deg)}}@keyframes rotate-center4{0%{transform:rotate(0deg)}33%{transform:rotate(359deg)}to{transform:rotate(360deg)}}@keyframes rotate-center5{0%{transform:rotate(0deg)}37%{transform:rotate(359deg)}to{transform:rotate(360deg)}}@keyframes rotate-center6{0%{transform:rotate(0deg)}40%{transform:rotate(359deg)}to{transform:rotate(360deg)}}@keyframes rotate-center7{0%{transform:rotate(0deg)}50%{transform:rotate(359deg)}to{transform:rotate(360deg)}}@keyframes scale-up-bottom{0%{-webkit-transform:scale(.25);transform:scale(.25);-webkit-transform-origin:50% 100%;transform-origin:50% 100%}20%{-webkit-transform:scale(1);transform:scale(1);-webkit-transform-origin:50% 100%;transform-origin:50% 100%}}</style><svg preserveAspectRatio="xMidYMin" width="427" height="231"><g style="animation:scale-up-bottom 5s cubic-bezier(.39,.575,.565,1) infinite both" fill-rule="evenodd" clip-rule="evenodd"><path d="M50.5 69s0 9.6-1.5 13.8C47.6 87 43 91 43 91s8.3.2 12.2 2c4 1.6 10 7.5 10 7.5s-1.7-8.7-.6-12.8c1.1-4 7-10 7-10s-7.3.2-10.8-1.3A58.4 58.4 0 0150.5 69z" fill="#00AC47" style="transform-origin:56px 79px;animation:rotate-center1 5s infinite both"/><path d="M415.6 112.7s-5.8 4.7-9 5.8c-3.3 1.2-8 .3-8 .3s4 5.3 5 8.5c.9 3.2.3 9.7.3 9.7s4.4-5.2 7.4-6.5c3-1.3 9.6-.7 9.6-.7s-3.8-4.3-4.6-7.1c-1-3-.7-10-.7-10z" fill="#E94232" style="transform-origin:409px 121px;animation:rotate-center2 5s infinite both"/><path d="M18.3 176.5s4.5 6.3 5.4 9.8c1 3.5-.3 8.2-.3 8.2s5.8-3.7 9.2-4.4c3.4-.8 10.1.3 10.1.3s-5.1-5-6.2-8.2c-1.1-3.2 0-9.9 0-9.9s-4.7 3.5-7.8 4.3c-3 .7-10.4 0-10.4 0z" fill="#FBB900" style="transform-origin:29px 181px;animation:rotate-center3 5s infinite both"/><path d="M3.9 118.8s2 5 2 7.5a13 13 0 01-1.4 5.6s4.4-1.6 6.7-1.4c2.4 0 6.7 2 6.7 2s-2.6-4.3-2.8-6.7c-.3-2.3 1.6-6.7 1.6-6.7s-3.8 1.6-5.9 1.5c-2.1 0-6.9-1.8-6.9-1.8z" fill="#E94232" style="transform-origin:10px 122px;animation:rotate-center4 5s infinite both"/><path d="M140 8.2s1.9 5 2 7.6a13 13 0 01-1.5 5.5s4.4-1.5 6.8-1.4c2.3.1 6.7 2 6.7 2s-2.7-4.2-3-6.6c-.1-2.4 1.7-6.7 1.7-6.7S149 10 146.8 10c-2.1 0-6.9-1.9-6.9-1.9z" fill="#FBB900" style="transform-origin:146px 20px;animation:rotate-center5 5s infinite both"/><path d="M369 91.5s-2.2 5-3.8 6.8a13 13 0 01-5 3s4.3 2 6 3.7c1.5 1.7 3.3 6 3.3 6s1.1-4.8 2.6-6.7c1.5-1.9 5.8-3.7 5.8-3.7s-3.8-1.5-5.3-3-3.6-6.1-3.6-6.1z" fill="#FBB900" style="transform-origin:368px 98px;animation:rotate-center6 5s infinite both"/><path d="M402.5 178s5-2.3 7.4-2.6c2.5-.3 5.6 1 5.6 1s-1.8-4.2-1.8-6.6c-.1-2.3 1.5-6.8 1.5-6.8s-4 3-6.4 3.3c-2.4.4-6.8-1-6.8-1s1.8 3.5 1.9 5.6c0 2.2-1.4 7-1.4 7z" fill="#00AC47" style="transform-origin:409px 167px;animation:rotate-center7 5s infinite both"/></g></svg><svg width="374" height="230" xmlns="http://www.w3.org/2000/svg" xmlns:xlink="http://www.w3.org/1999/xlink"><g transform="translate(64)"><defs><path d="M107.6 72.8c10-13.5 17.5-22.3 22.6-26.4A76.7 76.7 0 01180 27.8c26.4.7 61.9 24.8 73.6 48.6 7.9 16 10.5 28.6 7.9 38 12.8-.8 22.9 4.3 30.2 15.2 11 16.5 5 40 1.4 47.6a46.6 46.6 0 01-13.7 14 26 26 0 01-15.1 5.2c-124.3 3-193.8 4-208.5 3-22.6-1.7-28.4-12.3-34.4-19.8-5-6-11.4-30.8-.2-52a45 45 0 0132.3-25c1.5-6.3 4-12 7.2-17A43 43 0 0176 71.2c6.4-3.6 17-3.1 31.6 1.5z" id="b"/><path d="M11.6 70.4s14-20 13.5-65.6c0 0-.9-4.5-4.8-4.7-4-.3-5 4-5 4S13.9 36.6 3.6 54.6c-10.2 18 4.6 20.6 8 15.8z" id="c"/><path d="M25.7 68.1S8 51.1 0 6.3c0 0 0-4.6 3.8-5.6 3.9-1 5.6 3 5.6 3S17 35.2 30.6 51.1c13.5 15.8-.6 21-5 17z" id="e"/><path d="M35.2 15.5A39 39 0 0026.7 0a15.9 15.9 0 01-4 2.9c1 2 1.3 4.5.6 6.8-1 3-3.8 5.4-7 5.3C11 15 8 8.8 9 4a9.2 9.2 0 01-3.6-2.2l-.1.2-.2.3-.3.5-.3.5-.3.6-.3.5-.3.7-.3.6-.2.6-.2.6-.3.6-.2.6-.2.6-.2.6-.2.6-.2.6-.1.6a1.8 1.8 0 00-.2.6 1.8 1.8 0 000 .7L1 13l-.1.5-.1.6-.2.5v.6c-.2.1-.2.3-.2.5v1.1l-.1.5v.6l-.2.5v1l-.1.4-.1.5v6.3l4.8 27 30.6-3.9-.2-34.2z" id="g"/><filter x="-1.2%" y="-1.5%" width="102.5%" height="104.1%" filterUnits="objectBoundingBox" id="a"><feOffset dy="1" in="SourceAlpha" result="shadowOffsetOuter1"/><feGaussianBlur stdDeviation="1" in="shadowOffsetOuter1" result="shadowBlurOuter1"/><feColorMatrix values="0 0 0 0 0 0 0 0 0 0 0 0 0 0 0 0 0 0 0.08 0" in="shadowBlurOuter1"/></filter></defs><g fill-rule="evenodd"><path d="M100.8 73a170 170 0 0124.6-29 83.2 83.2 0 0154.1-20.2c28.8.7 67.4 27.1 80.2 53.2 8.5 17.3 11.4 31.2 8.5 41.6 14-1 25 4.5 33 16.5 11.9 18 5.5 43.7 1.5 52-2 4.2-7.3 9.5-15.7 15.8a26 26 0 01-15 5.2c-135.7 3.3-211.5 4.4-227.6 3.2C19.8 209.5 13.5 198 7 189.7c-5.4-6.6-12.5-33.6-.3-56.8A49 49 0 0142 105.5c1.6-6.9 4.3-13 7.8-18.6a47 47 0 0116.7-15.6c7-4 18.4-3.4 34.4 1.7z" fill="#F3F2F2"/><g transform="translate(0 23)"><use fill="#000" filter="url(#a)" xlink:href="#b"/><use fill="#FFF" xlink:href="#b"/></g><g transform="translate(17)"><path d="M165.9 154s1.4-5.3 9-5.3 22 17 5.6 48.6l-.8 1.3s5.7-1.3 6 4.7c.3 6-6 5.4-6.9 5.4-.8 0-13.3-1-8.9-27 0 0-2.4-15.7-2.6-16.1L166 154z" fill="#FFCCE9" fill-rule="nonzero"/><path d="M159.7 190.7s-7.2 2.3-12.2 2l-3.3.8-.8 27.4h14a251 251 0 002.3-30.2z"/><path d="M144.3 193.5l3.3-.8c5 .3 12.1-2 12.1-2 .5 3.8-1.2 20.4-2.2 30.1h5.6l5.3-29c5.2-28 0-37.7 0-37.7-9.4-13.6-23.3-3-23.3-3s-6.9 32.3-6.6 40.5c.2 5.7-.5 20.6-1 29.2h6l.8-27.3z" fill="#AF2DFD" fill-rule="nonzero"/><path d="M156.6 228h5l1.4-7.2h-5.6l-.8 7.3zm-13.3-.8l.2-6.3h-6l-.4 6.3h6.2z" fill="#000" fill-rule="nonzero"/><path d="M156.3 132.6c-1.3-5.1-6.5-5.1-6.5-5.1 5-3 4-9 4-9-.6-4-4.3-4.2-4.3-4.2 1.8-3.2-.6-5.8-.6-5.8a5.7 5.7 0 00-4.6-1.5c.8-4.6-2-10-2-10-3.6-6.5-8.3-1.4-8.3-1.4-.6-4-5.1-6.3-5.1-6.3-7.1-1.3-6.3 5.3-6.3 5.3v3l-1.2.5-5-2.6c-5.9 1.3-2.4 6.5-2.4 6.5l-.2 1-1.8-1.4c-7.7 3.4-1.1 8.9-1.1 8.9s2.4.9 4.7-1.8l.2.5 12.9 2.6 11.3-2.2-2.3 5 4.1 28.6s4 7.6 8.4 5.6c4.5-1.9 1.4-5.6 1.4-5.6 6.8-2.9 4.7-10.6 4.7-10.6z" fill="#FFCCE9" fill-rule="nonzero"/><text fill="#000" font-family="Helvetica" font-size="12" transform="translate(88.9 65.1)"><tspan x="28.6" y="66.6">#FBB</tspan> <tspan x="28.6" y="80.6">C04</tspan></text><path d="M113.4 110.4s-3.7-2.4-4-7.8c0 0-.6-2 0-3.2.4-1.2 2.2-1.7 3.2 0s3.8 5.5 3.2 8.4c-.6 3-2.4 2.6-2.4 2.6z" fill="#AF2DFD" fill-rule="nonzero"/><g fill-rule="nonzero"><path d="M113.4 109.1v-.4h-12v10.5c6 0 12-3.4 12-10z" fill="#000"/><path d="M95.5 108.7c0 6.6 3 10.7 8.9 10.7l-2.8-.7V109l-6.1-.3z" fill="#99A0A7"/></g><path d="M144.3 107.9H96.4c-.4.1-.8.4-.9.7v.9h48.9c1 0 1-1.6 0-1.6z" fill="#000" fill-rule="nonzero"/><path d="M141.6 192.9s-10.5 1.6-17.6-4.2a4275.2 4275.2 0 013.4 34.8h13.8c.6-9.4 1.3-26.4.4-30.6zm-24.5-69.6l.3-.9-.3.9z"/><path d="M117.1 123.3l-.2.9v1.2c0-.8 0-1.6.2-2.1z" fill="#3BB0E5" fill-rule="nonzero"/><path d="M128 133H124l-9 2.5c-.4 4.2-.9 9.3-1.1 15.4 15-11.6 14-18 14-18z" fill="#AF2DFD" fill-rule="nonzero"/><path d="M141 229.7h5.6l1-6.2h-6.4l-.3 6.2zm-13-.7l-.6-5.5h-6.3l1.1 5.5h5.7z" fill="#000" fill-rule="nonzero"/><g fill-rule="nonzero"><path d="M150.8 154l-.9-9.8c-.6-6-1.3-11.8-2.6-17.5-1.3-5.8-3-11.6-6.6-16.3l-2.3-3c-2.7-3-6.6-3.4-10.3-3.3-1.7.1-3.6.2-5.3.6h-.4l-.3.1-1.3.3h-.2l-4.7 2c-5 2.2-9.9 4.8-14.6 7.6-4.4 2.7-9.5 5-11.3 10.1-1.3 3.9-.7 7.8 1.6 11.1 3.2 4.5 7.7 5 13.2 4.8a22.4 22.4 0 0016-15.6c.4-1 2-.6 1.6.3-1.7 5-4 10-8.6 12.9l-3.7 2c5-.5 12.3-3.5 16.6-5.5-.6 2.5-3.3 7.6-12.6 15-.5 16.6.7 40.8 7 73.8h6.4l-3.4-34.8c7.1 5.8 17.7 4.2 17.7 4.2.8 4.3 0 21.3-.5 30.6h6.4a285.7 285.7 0 003.1-69.6z" fill="#D083FF"/><path d="M122.3 125.3c.4-1-1.2-1.4-1.5-.4a22.2 22.2 0 01-16 15.6l5-.3h.2a35 35 0 003.6-2c4.7-3 7-7.9 8.7-12.9z" stroke="#000" stroke-width=".5" fill="#000"/></g><path d="M94.8 122.9h-1.4c-1 0-1 1.6 0 1.6h1.4c1 0 1-1.6 0-1.6zm8.8 0h-1.3c-1 0-1 1.6 0 1.6h1.3c1 0 1-1.6 0-1.6z" fill="#000" fill-rule="nonzero"/><g fill-rule="nonzero"><path d="M120.2 83.4l-1.8-6a22 22 0 01-5 4.5l.5 8c2.5-1.6 4.7-3.9 6.3-6.5zm2.9 10.3l-2.3-8.2c-1.7 2.6-4.1 4.7-6.8 6.2l.6 9.3c3.5-1.7 6.3-4.3 8.5-7.3zm-5.2-18l-1.8-6.4a24.5 24.5 0 01-3.4 2.7l.5 8.1c1.8-1.2 3.4-2.7 4.7-4.4zm7.2 25.3l-1.5-5.4c-2.3 3-5.2 5.4-8.9 7l.4 5.4c4-1.5 7.4-4 10-7zm-9.5-33.3c-.4-1-1.2-2.4-2.2-2-1.5.6-1 3.3-1 3.3l.1 1.2a25 25 0 003-2.5zm.5 41.6l5.3-.6c6-.2 4.8-3.8 4.8-3.8l-.6-2c-2.6 2.7-5.8 4.9-9.5 6.4z" fill="#E4594F"/><path d="M115.8 68.4l-.3-.8a23.1 23.1 0 01-3 2.5l.2 1.8a24.5 24.5 0 003.4-2.6l-.3-.9zm2.6 9.1l-.5-1.8c-1.3 1.7-3 3.2-4.7 4.4l.1 1.8c2-1.2 3.7-2.7 5.1-4.4zm2.3 8l-.6-2.1a18.7 18.7 0 01-6.3 6.4l.1 1.8c2.7-1.5 5.1-3.6 6.8-6.1zm3 10l-.6-1.8c-2.2 3-5 5.6-8.5 7.3l.1 1.7a25 25 0 009-7.1zM115 108l.2 1.4.9-.1a26.2 26.2 0 009.5-6.6l-.5-1.8c-2.6 3.2-6 5.6-10 7z" fill="#FFF"/></g><g fill-rule="nonzero"><path d="M134.9 109.1v-.4h-9v10.6c5.9 0 9-3.5 9-10.2z" fill="#000"/><path d="M117 108.7c0 6.6 3 10.7 8.9 10.7v-10.7h-9z" fill="#99A0A7"/></g><path d="M144.3 107.9h-48c-1.1 0-1.1 1.5 0 1.5h48c1 0 1-1.5 0-1.5z" fill="#000" fill-rule="nonzero"/><path d="M136.1 110.4s4.4-8.6 5.8-10.2c1.5-1.7 4-5.2 3.3 2 0 0-1.1 8-5.3 11.5l-3.8-3.3z" fill="#AF2DFD" fill-rule="nonzero"/><g fill-rule="nonzero"><path d="M228.1 155.2s-3 2.6-4.2 4.4a45.3 45.3 0 00-3.9 11.7c-.4 3 .6 4.2 1.7 4l9.8-19.8-3.4-.3z" fill="#6D4C41"/><path d="M223.7 173.2l8.4-16.8c.2-.4 0-.9-.5-.9l-9.9 20 .3-.1c.8-.3 1.7-2.2 1.7-2.2z" fill="#424242"/></g><g transform="translate(238.9 8)"><mask id="d" fill="#fff"><use xlink:href="#c"/></mask><use fill="#34A853" fill-rule="nonzero" xlink:href="#c"/><g mask="url(#d)" fill-rule="nonzero"><path d="M11.9 22a154.1 154.1 0 003.3-26.8c3.3.5 8.4 1.7 11.7 2.5 1 9 .4 18.2.4 27.3v.8l-15.4-3.4v-.2-.2z" fill="#8D6E63"/><path d="M12.7 18.4l9.7 1.1c1.7.2 3.3.5 5 .6v5l-.1.7-15.4-3.4v-.2-.2l.8-3.6z" fill="#126B26"/></g></g><g transform="translate(193.6 12.2)"><mask id="f" fill="#fff"><use xlink:href="#e"/></mask><use fill="#34A853" fill-rule="nonzero" xlink:href="#e"/><g mask="url(#f)" fill-rule="nonzero"><path d="M16.2 20.6A177 177 0 017.9-5.1C4.7-4-.1-1.8-3.1-.4c.7 9.1 3 18 4.7 27l.2.7 14.5-6.2v-.3l-.1-.2z" fill="#8D6E63"/><path d="M14.7 17.2l-9.2 3-4.9 1.5 1 4.8.2.8L16.3 21v-.2-.2a23.6 23.6 0 01-1.6-3.4z" fill="#126B26"/></g></g><path d="M231.4 60a12 12 0 009.1-3.5c-2.5-1.5-9-3.3-14.5 1a8.4 8.4 0 005.4 2.5z" fill="#34A853" fill-rule="nonzero"/><path d="M220.4 49.1s-.5-.9-1.2-.3c-1 .9.2 5.2 1.7 5.8 1.1.4 1.5-.4 1.8-.7.2-.4-2.3-4.8-2.3-4.8zm22.5-2.7s.8-.6 1.5 0c1.1 1.1.2 6.1-1.6 6.6-1.3.4-2.4-.1-2.6-.5-.2-.5 2.7-6 2.7-6z" fill="#6D4C41" fill-rule="nonzero"/><g transform="translate(217.2 59.6)"><mask id="h" fill="#fff"><use xlink:href="#g"/></mask><use fill="#34A853" fill-rule="nonzero" xlink:href="#g"/><path d="M2.7 49.5l34-3.5.1 5-19 3.1-13.7.4-1.4-5z" fill="#126B26" fill-rule="nonzero" mask="url(#h)"/></g><path d="M233.5 74.7c3.3 0 6-2.3 7-5.4.7-2.2.5-4.7-.6-6.8-1.4.7-2.8 1.2-4.3 1.5-3 .7-6.6.8-9.4-.3-1 4.8 2 11 7.3 11z" fill="#126B26" fill-rule="nonzero"/><path d="M238.7 64.6l-.5-2.6c-.8-1.3-2-2.2-3.7-2.2-2.1 0-4.6.3-5.7 2.5-1.5 3 0 9 3.3 9.6 2.8.7 6.4-1.7 7-5.2-.3-.7-.3-1.4-.4-2z" fill="#8D6E63" fill-rule="nonzero"/><path d="M221.3 37s-1 .5-1.3 4.6c-.3 4 .2 8.4.5 10.7.3 2.4.8 7 3 8.6 2.4 1.6 3.5 2.3 6.9 2.6 3.4.4 7.5-1.2 8.7-2 1.3-1 4.6-4.4 4-10-.4-5.7-.5-10.1-1.5-12.5-1-2.5-3.9-3.6-6.9-4-3-.5-8.6-1.2-13.4 2z" fill="#8D6E63" fill-rule="nonzero"/><path d="M220.3 48.9c-.6.5-1.3-2.8-1.4-3.1-.4-2.6-.3-5.4 0-8l.3-1.3c.3-.6.8-1 1.2-1.3 1.9-1.4 4-2.9 6.3-3.5 4-1.2 8-.5 11.7 1a7 7 0 013.5 2.7c1.5 2.1 2.4 4.7 2.4 7.3 0 .5-.5 5.8-1.3 5.4l-.2-.9-.3-2a117.4 117.4 0 01-.7-4.8c0-1-1.3-1.7-2.1-2.3a17.4 17.4 0 00-11-2c-2.4.5-4.6 1.3-6.5 3-.6.6-1 1.3-1.4 2.1-.3.8-.3 1.8-.3 2.7l-.2 5z" fill="#000" fill-rule="nonzero"/><path d="M223.6 43.7a.5.5 0 01-.3-.1c-.2-.1-.2-.4 0-.6.2-.1 1.7-1.8 3-1.7.4 0 .7.3 1 .6a.4.4 0 11-.8.5c0-.2-.2-.3-.4-.3-.6 0-1.7.9-2.2 1.5l-.3.1zm14.8-1.2a.3.3 0 01-.3-.1c-1.4-2-3-1-3-.9a.4.4 0 11-.5-.7s2.2-1.5 4.2 1v.6l-.4.1zm-14.5 5h-.3a.4.4 0 010-.6s.9-1.4 2.2-1.5c.7 0 1.4.3 2 .8v.5c-.2.2-.5.2-.6 0-.5-.4-.9-.6-1.3-.6-.8.1-1.5 1-1.8 1.3l-.2.1zm14.7-1.4h-.2c-2.3-1.5-3-.3-3-.3a.4.4 0 11-.8-.5s1.3-1.8 4.2.1a.4.4 0 01.2.6l-.4.1z" fill="#263238" fill-rule="nonzero"/><path d="M230.6 50.5l-.3-.2a.4.4 0 010-.4l.8-2.7c0-.1.3-.3.5-.2.2 0 .3.2.2.5l-.6 2.2h1.3c.2 0 .4.2.3.4a.5.5 0 01-.4.3h-1.8z" fill="#6D4C41" fill-rule="nonzero"/><path d="M224.7 54.1l.3-.3 1-.5c.6-.2 1.3-.2 1.9-.3a41 41 0 013.8-.5h2.2l4.6-.4.4.1v.3c-.1.7-.7 1.3-1.2 1.7-1.8 1.4-4 2-6.2 2.1a14 14 0 01-4.7-.4c-.5-.2-1-.4-1.3-.7-.4-.2-1-.7-.8-1z" fill="#4E342E" fill-rule="nonzero"/><path d="M233.7 52.9l-2 .1-3.4.3-1.8.3h-.4l1 2h.2c1.3.3 2.8.3 4.2.3 2-.1 4-.6 5.6-1.6v-1l.2-.6-3.6.2z" fill="#FFF" fill-rule="nonzero"/><path fill="#4E342E" fill-rule="nonzero" d="M226.2 54.9h1.6l.1.5-1.3.3zm11.4-1.6l-2.1.6.2.4 1.7-.2.2-.8z"/><path fill="#34A853" fill-rule="nonzero" d="M222.6 61.4v.1"/><path fill="#8D6E63" fill-rule="nonzero" d="M234.6 61.2l3.3 4v.5l-3.4 3.9-6-2.6-.9-5.3z"/><g fill-rule="nonzero"><path d="M242.4 218.6l2.4-8.2-8-4.5-1.6 7.8c2.3 1.8 4.7 3.4 7.2 4.9z" fill="#78909C"/><path d="M234.2 218.7l7.4 3 .9-3.1c-2.5-1.5-5-3.1-7.2-4.9l-1 5z" fill="#126B26"/></g><g fill-rule="nonzero"><path d="M246.2 223.6l-4.7-2-7.3-2.9-.6 2.6 15.9 6.5a5.3 5.3 0 00-3.3-4.2z" fill="#6D4C41"/><path d="M249.6 228.4v-.6l-16-6.5v.6l16 6.5z" fill="#424242"/></g><g fill-rule="nonzero"><path d="M252.5 109.3l-30.5 4-25.2 36.8c-2.2 3.3-2.7 8.6 0 11.7 4 4.6 11 3 16.1 2l6.3-1.4c3.8-4.3.7-7.1-.9-8.2l-9-.8L231 126l6.7.2 7.5 38.2-8.4 41.4 8 4.5 12.6-43.4-4.8-57.7z" fill="#012754"/><path d="M219.3 162.4l2.7-.6c1.3-1.5 2.2-3.3 2-5.3l-.7-1.8-5-.4c1.7 1 4.8 3.8 1 8.1z" fill="#78909C"/><path d="M228.1 155.2l-4.8-.5c.3.6.6 1.1.6 1.8.3 2-.6 3.8-2 5.3l3.2-.7s2.2-2.4 3-6z" fill="#126B26"/></g><path d="M254.1 14.5l-.2 2.8 10 .8v-2.9l-9.8-.7z" fill="#FABB05" fill-rule="nonzero"/><g fill-rule="nonzero"><path d="M203 16c1.7-1.1 4.3-4.2 4.1-5 0-.9-1.7-5.1-2.3-5.5-.5-.5-1.2 0-1.2 0s-.5-1.5-2-1.2c-1.4.1-1.6 1.4-1.6 1.4s-.8-.9-1.8-.5c-1 .3-1 1.5-1 1.5s-.8-.8-1.6-.4c-.9.4-1 1.3-1 1.3s-1-1-2 .4c-1.4 1.7-.2 3.7-.1 4.8 0 1 .6 4 1 5.6 0 0 5.8 0 9.4-2.4z" fill="#8D6E63"/><path d="M196.4 13a.3.3 0 01-.3-.2c-.4-1-.8-2-1-3.2 0-.2.2-.4.3-.5.2 0 .4.2.4.3a14.3 14.3 0 001 3.1c0 .2 0 .4-.2.5h-.2zm2.8-1.6c-.1 0-.2 0-.3-.2-.4-1.1-.8-2.1-1-3.5 0-.2.1-.4.3-.4.2 0 .4.1.4.3.2 1.3.6 2.4 1 3.4 0 .2 0 .4-.2.4h-.2z" fill="#6D4C41"/><path d="M200.3 15.9a.3.3 0 01-.4-.2s-.8-1.8.2-3.6a7 7 0 012.1-2.3 4 4 0 01-3-1.8c-.3-.6-.2-.9-.1-1 0 0 .2-.3 3.1-1.5.2 0 .4 0 .4.2s0 .4-.2.4l-2.7 1.3c.2.5 1.3 1.9 3.5 1.7.2 0 .3 0 .3.2.1.1 0 .3 0 .4 0 0-2 1.3-2.8 2.7-.8 1.4-.1 3 0 3 0 .2 0 .4-.3.4h-.1z" fill="#6D4C41"/></g><g fill-rule="nonzero"><path d="M254.3 12.1c-2-.8-5-3.5-5-4.3 0-.9 1-5.2 1.5-5.8.4-.5 1.2-.1 1.2-.1s.3-1.6 1.7-1.6c1.5 0 1.8 1.2 1.8 1.2s.7-1 1.7-.8c1 .2 1.3 1.3 1.3 1.3s.6-.9 1.5-.6c.9.2 1 1.2 1 1.2s1-1.1 2.2 0c1.6 1.5.8 3.7 1 4.8 0 1 0 4-.3 5.7 0 0-5.6.8-9.6-1z" fill="#8D6E63"/><path d="M260.2 8.1c-.2 0-.4-.2-.3-.4.2-1 .4-2 .4-3.2 0-.2.2-.3.4-.4.2 0 .4.2.4.4 0 1.3-.3 2.3-.5 3.4a.4.4 0 01-.4.2zm-3-1c-.2-.1-.3-.3-.3-.5.3-1 .4-2.2.5-3.5 0-.2.2-.4.4-.4s.3.2.3.4c0 1.5-.2 2.5-.4 3.7-.2.1-.3.3-.5.3z" fill="#6D4C41"/><path d="M257 11.6h-.2c-.2-.1-.3-.3-.2-.5 0 0 .4-1.6-.6-3-1-1.2-3-2-3-2-.2-.1-.3-.3-.3-.4 0-.2.2-.3.3-.3 2.2-.2 3-1.8 3.2-2.3a36 36 0 00-2.9-.7c-.2 0-.3-.3-.2-.5 0-.1.2-.3.4-.2 3 .7 3.2 1 3.4 1 0 0 .2.2-.1.9-.4.8-1.2 1.8-2.6 2.2a8 8 0 012.4 2c1.2 1.6.7 3.5.7 3.5l-.4.3z" fill="#6D4C41"/></g><g fill-rule="nonzero"><path d="M57.8 137l4.4 5.7a3 3 0 002.7 1l-6-7.5-1 .9z" fill="#FFAB91"/><path d="M62 141.3c.5.5.4 1 .1 1.3l.1.1a3 3 0 002.7 1.1l-6-7.6-.5.5 3.7 4.6z" fill="#6D4C41"/></g><path d="M29.8 46.7l-2 10 23.4 4.8 2.2-10s0-9.5-9.8-11.6c0 0-8-2.5-13.8 6.8z" fill="#000" fill-rule="nonzero"/><path d="M51 57.6c-1-.3-2 .5-2.2 1.5l-.3 1.5c-.3 1 .4 2 1.5 2.3 1 .2 2-.5 2.3-1.5l.3-1.5a2 2 0 00-1.5-2.3zm-21.3-4.9c-1-.2-2 .5-2.3 1.5l-.3 1.5c-.3 1 .5 2 1.5 2.3 1 .2 2-.5 2.3-1.5l.3-1.5a2 2 0 00-1.5-2.3z" fill="#FF7043" fill-rule="nonzero"/><path d="M12.1 58.9A3.2 3.2 0 019.3 57c-3-6.3-5.5-13.6-6.4-19.6a3.2 3.2 0 012.7-3.6 3.2 3.2 0 013.6 2.7c.8 5.3 3 12 5.7 17.7.8 1.6.1 3.5-1.4 4.3-.4.2-.9.3-1.4.3z" fill="#FFAB91" fill-rule="nonzero"/><path d="M25.3 95.5c.8 0 .8-1.2 0-1.2-.7 0-.7 1.2 0 1.2z" fill="#4E342E" fill-rule="nonzero"/><use fill-rule="nonzero" xlink:href="#reuse-0"/><path d="M45 75.8c2.5.8 3.6 1.9 3.6 1.9l-3.6-2z" fill="#4285F4" fill-rule="nonzero"/><g transform="translate(26.8 73)" fill-rule="nonzero"><path fill="#4FC2F6" d="M15.4 1.8l-6.3 6L5.3 0h-.7L.4 6.8l6.5 1.1-1.2 7.6 2 .3 2.3.5 1.3-7.7 6.6 1.1-1.7-7.6z"/><circle fill="#4285F4" cx="8.8" cy="10.1" r="1"/><circle fill="#4285F4" cx="8.2" cy="13.6" r="1"/></g><g fill-rule="nonzero"><path d="M42.9 40c-5.9-1-11.4 3-12.4 8.8L29.1 57c-1 5.9 3 11.4 8.8 12.4 5.9 1 11.4-3 12.4-8.8l1.4-8.3c1-5.7-3-11.3-8.8-12.3z" fill="#FB8C00"/><path d="M32.2 52.8s-1.2 2-2.3 3.3c0 0 0 3.3 2.6 3.5l3.2.5s1.7.4 2.1-1.3c0 0 .5-1.3.5-2.2 0 0 .6-2.6-2.3-3.1l-3.8-.7z" fill="#FFA626"/></g><path d="M43 61.4s-1.7-.2-1.7-2 0-1.6.3-2.2c.2-.7 0 0 0 0s.3-2.5 3.1-2.2c2.9.2 0 0 0 0l5 .7s.8 0 .7 1c-.1 1 0 0 0 0s-.6 6-4.3 5.1c-3.7-.7 0 0 0 0l-3.2-.4" fill="#FFA626" fill-rule="nonzero"/><path d="M30 56.1s-.2-1.6.1-2.8c.4-1.2 0 0 0 0s.2-.9 1-.8c.9.2 0 0 0 0l1.2.3c-.1 0-.7 1.4-2.4 3.3m19.8-.4s.9.1.7 1c0 0-4.7-1-6.4-1.8h.7l5 .8z" fill="#5D4037" fill-rule="nonzero"/><path d="M40.1 66.2a7.3 7.3 0 01-3.4-.9c-.2 0-.2-.3-.1-.5 0-.2.3-.2.5-.1 2.2 1.2 5 1 7-.5h.5v.6a7.8 7.8 0 01-4.5 1.4z" fill="#BF360C" fill-rule="nonzero"/><path d="M39.3 63c-.7 0-1.4-.4-1.9-.7a.8.8 0 01-.1-.2v-.3l1.8-1.7a.4.4 0 01.5 0 .4.4 0 010 .5L38.2 62l1.2.3c.2 0 .4.1.4.3 0 .2-.1.4-.3.4h-.2z" fill="#EF6C00" fill-rule="nonzero"/><g fill="#3E2723" fill-rule="nonzero"><path d="M36.7 57.2a.5.5 0 01-.4-.3s-.4-.9-1.7-1c-1.4-.3-2.2.4-2.2.4a.5.5 0 01-.3.1c-1 0-1.4-.8-1.4-1.1 0-.3.1-.5.3-.5.3 0 .5.1.5.3 0 .2 0 .4.4.4.4-.2 1.4-.8 2.8-.6 1.8.3 2.4 1.6 2.4 1.7 0 .3 0 .5-.3.6h-.1z"/><path d="M34.6 55.4c-.3 0-.7.2-.8.5l-.1 1c-.1.4.1.7.5.8.4 0 .7-.2.8-.5l.2-1c0-.4-.2-.7-.6-.8z"/></g><path d="M33.5 53c-.3 0-.5-.3-.4-.5A1.8 1.8 0 0135 51l1.2.2c.3 0 .4.3.4.5s-.3.4-.6.4l-1.2-.2c-.4 0-.8.2-.9.6 0 .3-.2.4-.4.4z" fill="#4E342E" fill-rule="nonzero"/><g fill="#3E2723" fill-rule="nonzero"><path d="M48 59.2l-.5-.1a.8.8 0 01-.2-.2s-.6-1-2-1.2c-1.2-.2-1.9.5-1.9.5-.2.2-.4.2-.7 0-.2-.1-.2-.4 0-.6 0 0 1-1 2.8-.8 1.4.3 2.2 1.1 2.4 1.5.3 0 .4-.1.5-.2.1-.3.4-.3.6-.2.2.1.3.3.2.6-.1.2-.5.7-1.2.7z"/><path d="M45.4 57.2c.4 0 .6.4.6.8l-.2 1c0 .3-.5.6-.8.5a.7.7 0 01-.6-.8l.2-1c.1-.3.4-.5.8-.5z"/></g><path d="M47.8 55.5c-.3-.1-.5-.4-.4-.6 0-.4-.3-.8-.7-1h-1.2c-.2-.2-.4-.4-.3-.6 0-.3.3-.5.5-.4l1.2.2a1.8 1.8 0 011.4 2c0 .2-.3.4-.5.4zm-22.5 40c.8 0 .8-1.2 0-1.2-.7 0-.7 1.2 0 1.2z" fill="#4E342E" fill-rule="nonzero"/><use fill-rule="nonzero" xlink:href="#reuse-0"/><path d="M26.6 77.3c-.7 0-1.4-.2-2-.7-.4-.3-9.4-7.5-15.1-19a3.2 3.2 0 011.4-4.2c1.6-.8 3.5-.1 4.3 1.4 5 10 13.2 16.7 13.3 16.8A3.1 3.1 0 0129 76c-.6.9-1.5 1.3-2.4 1.3z" fill="#FFAB91" fill-rule="nonzero"/><path d="M26.6 77.3c-.7 0-1.4-.2-2-.7 0 0-2-1.5-4.6-4.3a3.2 3.2 0 010-4.5 3.2 3.2 0 014.6.1c2.3 2.4 4 3.7 4 3.7a3.1 3.1 0 01.4 4.5 3 3 0 01-2.4 1.2z" fill="#E4594F" fill-rule="nonzero"/><g fill-rule="nonzero"><path d="M42.9 40c-5.9-1-11.4 3-12.4 8.8L29.1 57c-1 5.9 3 11.4 8.8 12.4 5.9 1 11.4-3 12.4-8.8l1.4-8.3c1-5.7-3-11.3-8.8-12.3z" fill="#FFAB91"/><path d="M50.8 57.2l-.4-.2c-3.2-3.5-5.3-2.5-5.4-2.4-.2.1-.4 0-.6-.2 0-.2 0-.5.2-.6.1 0 2.7-1.5 6.5 2.6a.5.5 0 010 .7h-.3z" fill="#263238"/></g><path d="M39.8 61.2c-.7 0-1.5-.4-2-.7a.5.5 0 010-.2V60l2-1.6a.4.4 0 01.4 0 .4.4 0 010 .5l-1.5 1.3 1.2.4c.2 0 .3.1.3.3 0 .2-.2.3-.4.3z" fill="#FF8A65" fill-rule="nonzero"/><path d="M48.5 59.2L48 59c-.1 0-.2 0-.2-.2 0 0-.7-.9-2-.9-1.4 0-2 .8-2 .9-.2.1-.5.2-.7 0-.2-.2-.2-.4 0-.6 0 0 1-1.1 2.7-1.1 1.4 0 2.2.7 2.5 1.1.3 0 .5-.1.5-.2.1-.3.4-.3.6-.2.3.1.3.3.2.6 0 .2-.4.7-1 .7zm-11.1-2.3c-.3 0-.5-.2-.5-.5 0 0 .1-1-.9-2-.8-.9-2-.7-2-.7h-.3c-.8-.5-.9-1.4-.8-1.7 0-.3.3-.4.6-.3.2 0 .3.3.3.5 0 .1 0 .3.2.5.4 0 1.6 0 2.6 1 1.3 1.3 1.1 2.7 1.1 2.7a.4.4 0 01-.3.5z" fill="#263238" fill-rule="nonzero"/><g fill-rule="nonzero"><path d="M42 74.3c2.3 1 10 3.5 8.7 6.8l-8.5 25L19 105l4.7-30.3c1-2.7 2.5-2.6 7.1-2.4l6.6.7s2.7.4 4.8 1.4z" fill="#E4594F"/><path d="M34.7 80l-3-7.9 2.4.2.8-4 5.6 1-.6 4 2.2.7-6 6.2s-.9.8-1.4-.2z" fill="#FFAB91"/></g><path d="M7.3 34.6h-.2c-.8-1-.7-1.8-.5-2.3-1.5-.3-2.1-1.7-2.2-2.4v-.3h.3l4-.3c.2 0 .4.1.4.3 0 .2-.2.3-.3.3l-3.6.2c.2.6.6 1.5 2 1.5 0 0 .2 0 .2.2v.3c0 .1-.7.9.1 2a.3.3 0 010 .4l-.2.1z" fill="#EF6C00" fill-rule="nonzero"/><path d="M6 30.7c-.2 0-.3-.2-.2-.4l.2-2.5c0-.2.2-.3.4-.3s.3.1.3.3l-.2 2.6c-.1.2-.2.3-.4.3zM3.9 33c-.1 0-.3-.1-.3-.3l-.2-4.4c0-.2.2-.3.4-.3s.3 0 .3.3l.2 4.3c0 .3-.2.4-.4.4zm-1.5.4c-.2 0-.4-.1-.4-.3l-.5-3.8c0-.2.1-.4.3-.4.2 0 .4.2.4.3l.5 3.8c0 .2-.1.4-.3.4z" fill="#EF6C00" fill-rule="nonzero"/><path d="M2 35.3L.6 29.5s-.2-1 .7-1.3c0 0 .8-.2 1.2.5 0 0-.1-1 1.2-1.4 0 0 1.2-.2 1.5.8 0 0-.2-1 1-1.4 0 0 1 0 1.3.8 0 0 0-.9 1.3-.8 0 0 .7-.1 1 1.1l.1 1.2s1.2 0 1.3 1l.4 3.8-2.4 2.4.4 2.1-6 2.2" fill="#FFAB91" fill-rule="nonzero"/><path d="M6.1 34.8c-.1 0-.3-.1-.3-.3 0-.7 0-1.3.4-1.9.3-.4.7-.7 1.2-.9-1-.6-1.3-1.7-1.1-2.3 0-.2 0-.3.3-.3l3-.2c.1 0 .3.1.3.3 0 .2-.1.4-.3.4l-2.7.2c0 .5.2 1.4 1.5 1.7.2 0 .3.2.3.3 0 .2-.1.3-.3.3 0 0-1.1.2-1.6 1a1.7 1.7 0 00-.3 1.3c0 .2 0 .4-.2.4H6zm-2.6-2l-.3-.2-.8-3.3.3-.4c.2 0 .3 0 .4.3l.7 3.1c.1.2 0 .4-.2.4v.1z" fill="#FF8A65" fill-rule="nonzero"/><path d="M6 32.1c-.2 0-.3 0-.3-.2L5 28.8c0-.2 0-.4.2-.4.2-.1.4 0 .5.2l.6 3.1c0 .2 0 .4-.2.4H6z" fill="#FF8A65" fill-rule="nonzero"/><path d="M33.9 62.8s0-1.3 1-1c0 0 3.2 1.9 7.6 2.2 0 0 1.2 0 .7 1 0 0-.8 2.8-5.6 2-.1.1-3.9-.5-3.7-4.2z" fill="#FFF" fill-rule="nonzero"/><path d="M43 65.4s-.7.4-2.8.3c0 0 .8.6 2 .8 0 0 1.1-.6.8-1zm-6.8-.8s-1.1-.3-2.4-1.4l.1 1s1 .7 2.3.4z" fill="#263238" fill-rule="nonzero"/><circle fill="#000" fill-rule="nonzero" cx="51.6" cy="39.7" r="6.6"/><path d="M43.5 39.6a11 11 0 00-13 8.4l-.6 3.7c12.7 2.6 18.4-1 18.4-1a13 13 0 002 10l1.7-8.4c1.7-6.1-2.6-11.5-8.5-12.7z" fill="#000" fill-rule="nonzero"/><path d="M31.7 72.2s-2.3-.6-5.4-2.6c0 0 2 4.1 5.4 2.6z" fill="#EFF0F2" fill-rule="nonzero"/><path d="M16.7 68.6l4.8-4.2s3.3 3.8 3.5 3.8l-4.7 4.3s-1.8-1.7-3.6-3.9z" fill="#90130E" fill-rule="nonzero"/><path d="M70.1 81.7c-1.4 0-2.7-1-3-2.4-.5-1.7.5-3.5 2.2-3.9 6-1.6 12.6-4.4 17-7.3 1.5-1 3.5-.5 4.5 1 1 1.4.4 3.5-1 4.4a69.4 69.4 0 01-19 8c-.1.2-.4.2-.7.2z" fill="#FFAB91" fill-rule="nonzero"/><path d="M55.6 83.5h-2.2a3.1 3.1 0 01-3-3.3c0-1.8 1.5-3.1 3.2-3 3.7 0 9.4-.1 15.2-1.6 1.7-.4 3.5.6 3.9 2.3.4 1.7-.6 3.4-2.3 4a62.5 62.5 0 01-14.8 1.6z" fill="#FFAB91" fill-rule="nonzero"/><path d="M54 83.5h-1.4c-2.7-.2-5-.2-6.8-.8a3.2 3.2 0 01-2.1-4 3.2 3.2 0 014-2c1 .2 3.1.3 5 .4h1.5c1.7 0 3 1.6 3 3.4a3.2 3.2 0 01-3.2 3z" fill="#E4594F" fill-rule="nonzero"/><path d="M58.3 83.5l.1-6.4H54l-.3 6.4h4.7z" fill="#90130E" fill-rule="nonzero"/><path d="M93 68c-.6 0-1.3-.3-1.9-1a.4.4 0 010-.5.4.4 0 01.5 0 2 2 0 002.4.5l-2.2-2.8v-.5c.2-.2.4 0 .5 0l2.5 3.2v.5c-.5.3-1 .5-1.7.5z" fill="#EF6C00" fill-rule="nonzero"/><path d="M93.2 66.8a.5.5 0 01-.3-.1.4.4 0 010-.5l1.9-2a.4.4 0 01.5 0 .4.4 0 010 .6l-1.9 1.9h-.2zm-.4 3.3l-.2-.2a.3.3 0 010-.5l3.5-2.7a.3.3 0 01.4 0 .3.3 0 010 .6L93 70h-.3z" fill="#EF6C00" fill-rule="nonzero"/><path d="M92.2 72.7l5.3-2.8s.8-.5.4-1.4c0 0-.3-.7-1-.6 0 0 .8-.6.1-1.7 0 0-.6-1-1.5-.6 0 0 1-.6.3-1.7 0 0-.7-.8-1.4-.5 0 0 .7-.5-.2-1.4 0 0-.4-.6-1.5 0l-1 .7s-.8-1-1.7-.3l-3 2.2s0 2-.3 3.3l-2 1.1 2.5 6" fill="#FFAB91" fill-rule="nonzero"/><path d="M90 69.5a.3.3 0 01-.2-.2c-.1-.2 0-.4.1-.5.5-.3.7-.6.9-1.1.2-1-.4-1.9-.4-1.9-.1-.2 0-.4.1-.5.2-.1.4 0 .5.1 0 0 .7 1.3.4 2.4-.2.6-.5 1.1-1.1 1.5l-.2.1z" fill="#FF8A65" fill-rule="nonzero"/><path d="M92 66.5c-.5 0-1-.2-1.6-.6v-.5h.5c1.3 1 2.3 0 2.4-.2a.4.4 0 01.5 0 .4.4 0 010 .5 2.3 2.3 0 01-1.8.8z" fill="#FF8A65" fill-rule="nonzero"/><path d="M93.6 65.9c-.2 0-.2-.1-.3-.2l-1.8-2.3v-.5h.5l1.9 2.4-.1.5h-.2zm-.3 4.2a.3.3 0 01-.3-.2l.1-.4L96 68l.4.1-.1.4-2.9 1.6zm-1-2.3a.3.3 0 01-.4-.2l.1-.4 2.8-1.6.5.1c0 .2 0 .4-.2.5l-2.8 1.5v.1z" fill="#FF8A65" fill-rule="nonzero"/><path d="M56.8 167.9a4 4 0 11-3.5-7.4l7.4-3.2 2.3 7.4-6.2 3.2z" fill="#2C66BF" fill-rule="nonzero"/><path fill="#FFAB91" fill-rule="nonzero" d="M86.2 152.7l-2.4-5.3-15.1 6.5 2 6.8z"/><path fill="#6199F6" fill-rule="nonzero" d="M70.7 160.6l-2-6.7-8 3.4 2.3 7.3z"/><path d="M29.8 166.6l14-11.7-4-6-14.8 9.9c-2 1.3-2.5 4-1.2 6 1.4 2.1 4 3.4 6 1.8z" fill="#2C66BF" fill-rule="nonzero"/><path d="M31 115a6.5 6.5 0 00-6.8-6c-3.2 0-6.5.9-7 4.5-.2.8-.2 3.2-.2 4.2l6 45c.3 2.2 2.3 3.9 4.8 3.8 2.5 0 4.5-2 4.5-4.5L31 115z" fill="#2C66BF" fill-rule="nonzero"/><g fill-rule="nonzero"><path d="M83.6 147.4l3.2 6.4a3 3 0 002.5 1.7l-4.3-8.7-1.4.6z" fill="#FFAB91"/><path d="M87 152.5c.2.5 0 .9-.3 1.2l.1.1a3 3 0 002.5 1.7l-4.3-8.7-.7.3 2.6 5.4z" fill="#6D4C41"/></g><path d="M19 104.8s-.7 2-1.6 6.4c0 0-.4 2.2-.3 6.5l31.8 4.2s-1.2-7-6.6-15.8L19 104.8z" fill="#2C66BF" fill-rule="nonzero"/><path fill="#6199F6" fill-rule="nonzero" d="M42.5 156l-4.8-5.7-4.2 2.8 4.4 6.7z"/><path fill="#FFC107" fill-rule="nonzero" d="M9.2 36.2l-6.6 1.2.9 3L9.7 39z"/><path fill="#FFAB91" fill-rule="nonzero" d="M42.5 156l18.9-14.4-3.5-4.5-20.2 13.2z"/><path d="M48.7 121.2c-.8-2.8-7.1-9.6-10-9.1-3.6.5-9.6.9-8.3 4.3l20.6 49c.7 1.8 2.6 2.9 4.5 2.6a4 4 0 003.3-5.2l-10.1-41.6z" fill="#2C66BF" fill-rule="nonzero"/><path d="M42.1 74s4.5 2 8.5 3c0 0-5.8 0-9-2.4l.5-.5z" fill="#EFF0F2" fill-rule="nonzero"/></g><path d="M130.7 153.2c1 .6 1.6 2.2 2.1 3.4.5 1.2 1.2 2.6 1 3.9-.2.7-3 2-3.7 1.6-1-.6-1.4-1.9-1.8-3-.4-1-1.3-2.6-1.1-3.9.2-1.2 2.5-2.5 3.5-2zm5.6 10c1.1.3 2.1 1.6 2.9 2.5.8 1 1.8 2 1.8 3.3 0 .7-2.6 2.4-3.5 2.1-1.1-.3-1.8-1.3-2.5-2.2-.7-.8-2-2.1-2-3.2 0-1.2 2.1-2.8 3.3-2.5zm29.6-10.3c-1 .4-1.7 2-2.3 3.1-.6 1.2-1.5 2.5-1.3 3.8 0 .8 2.7 2.3 3.5 2 1-.6 1.5-1.8 2-2.8.5-1 1.5-2.6 1.5-3.8 0-1.3-2.4-2.8-3.4-2.3zm-5.5 9.9c-1.1.2-2.2 1.4-3 2.3-.9 1-2 2-2.1 3.1-.1.8 2.2 2.7 3 2.6 1.2-.2 2-1.3 2.7-2 .7-.8 2-2 2.3-3.2.2-1.1-1.8-3-3-2.8z" stroke="#FABB05" stroke-width="2.6"/><path stroke="#EDA606" stroke-width="2.8" stroke-linecap="round" d="M131.7 160l3.3 5"/><path d="M129.8 150.8c-.6.8-.9 1.7-.7 2.6 0 1 .2 1.7.4 2.5" stroke="#EDA606" stroke-width="2.4" stroke-linecap="round" stroke-linejoin="round"/><path stroke="#EDA606" stroke-width="2.4" stroke-linecap="round" d="M164.7 160.3l-3.6 4.8m7-15.2a7 7 0 01.4 2.8c0 .7-.6 1.4-1.6 2.4"/><g fill-rule="nonzero"><path d="M163 173.3l-6.6-11.2a2.8 2.8 0 00-2.4-1.4l-12.8.2a2.8 2.8 0 00-2.4 1.5l-6.3 11.4a2.9 2.9 0 00.1 2.9l6.6 11.3a2.9 2.9 0 002.4 1.4l12.9-.2a2.9 2.9 0 002.4-1.5l6.2-11.5a3 3 0 000-2.9z" fill="#4285F4"/><path d="M156 175.8l-8.9-5 .8 3.2-3.4-3.2.7 5-2.7 6.9 7.2 6.8h4.9a2.8 2.8 0 002.3-1.5l4.2-7.5-5-4.7z" fill="#000" opacity=".1"/><g fill="#FFF"><path d="M146.2 175.7l-1.7-5.4-2.2-1.5 2.2 7-2 7 2.2-1.6z"/><path d="M146 168.7l2.2 7-2 7 10-7.1-10.2-6.9zm2.9 6l-1.2-3.6 5.2 3.5h-4z"/></g></g></g></g></svg></svg>