<svg width="1444" height="679" xmlns="http://www.w3.org/2000/svg" xmlns:xlink="http://www.w3.org/1999/xlink"><defs/><defs><filter x="-1.4%" y="-1.7%" width="102.9%" height="104.8%" filterUnits="objectBoundingBox" id="a"><feOffset dy="1" in="SourceAlpha" result="shadowOffsetOuter1"/><feGaussianBlur stdDeviation="1" in="shadowOffsetOuter1" result="shadowBlurOuter1"/><feColorMatrix values="0 0 0 0 0 0 0 0 0 0 0 0 0 0 0 0 0 0 0.08 0" in="shadowBlurOuter1"/></filter><filter x="-2%" y="-2.4%" width="104.1%" height="106.7%" filterUnits="objectBoundingBox" id="c"><feOffset dy="1" in="SourceAlpha" result="shadowOffsetOuter1"/><feGaussianBlur stdDeviation="1" in="shadowOffsetOuter1" result="shadowBlurOuter1"/><feColorMatrix values="0 0 0 0 0 0 0 0 0 0 0 0 0 0 0 0 0 0 0.08 0" in="shadowBlurOuter1"/></filter><path d="M1271.2 568.2c8.5-11.4 15-19 19.3-22.4 16.4-13 31.9-16 42.6-15.8 22.6.6 53 21 63 41.3 6.7 13.5 8.9 24.3 6.7 32.3a27 27 0 0125.8 12.9c9.4 14 4.4 33.9 1.2 40.3-1.4 3-5 6.6-10.5 11a26 26 0 01-15.3 5.4c-105.5 2.5-164.6 3.4-177.1 2.4-19.4-1.4-24.3-10.4-29.4-16.7-4.2-5.2-9.8-26.2-.2-44.1 6.3-12 15.6-19.1 27.6-21.4a47.7 47.7 0 016.1-14.4 36.7 36.7 0 0113.1-12c5.6-3.1 14.6-2.7 27 1.2z" id="b"/><path d="M217.3 82.2c6-8.1 10.6-13.5 13.7-16A46.7 46.7 0 01261.3 55c16 .4 37.6 15 44.7 29.4 4.8 9.6 6.4 17.3 4.8 23 7.8-.5 14 2.6 18.4 9.2 6.6 10 3 24.1.8 28.7A20.8 20.8 0 01312 157c-75.2 1.8-117.2 2.4-126.1 1.7-13.8-1-17.2-7.4-21-11.9-2.9-3.7-6.8-18.6 0-31.4 4.5-8.6 11-13.6 19.6-15.2a34 34 0 014.4-10.3c3-4.6 6.8-7.2 9.3-8.6 3.9-2.2 10.3-1.9 19.2 1z" id="d"/></defs><g fill="none" fill-rule="evenodd"><path d="M1241.5 497.9a165.7 165.7 0 0124-28.1 81.5 81.5 0 0153-19.8c28.1.7 65.8 26.4 78.3 51.8 8.4 16.9 11.1 30.4 8.3 40.5 13.7-1 24.4 4.4 32.2 16 11.6 17.6 5.4 42.6 1.5 50.6-2 4.1-7 9.2-15.1 15.3a26 26 0 01-15 5.2c-132.5 3.3-206.6 4.3-222.3 3.2-24-1.8-30.2-13.1-36.6-21-5.2-6.5-12.1-32.9-.2-55.4 7.9-15 19.3-23.9 34.3-26.7a60 60 0 017.7-18c5.2-8.2 12-12.8 16.3-15.2 6.8-3.9 18-3.3 33.6 1.6z" fill="#F3F2F2"/><use fill="#000" filter="url(#a)" xlink:href="#b"/><use fill="#FFF" xlink:href="#b"/><path d="M259.3 34a117.5 117.5 0 00-17-20 57.5 57.5 0 00-37.5-14c-19.9.5-46.6 18.8-55.4 36.8-6 12-7.9 21.6-5.9 28.7A23.8 23.8 0 00120.7 77c-8.2 12.4-3.8 30.2-1 35.9a25.8 25.8 0 0022.6 14.6c93 2.3 145 3 156 2.2 17-1.3 21.3-9.3 25.9-15 3.7-4.5 8.6-23.2.2-39.2a33.9 33.9 0 00-24.3-19c-1.2-4.7-3-9-5.5-12.9-3.6-5.7-8.4-9-11.5-10.7-4.8-2.8-12.8-2.4-23.8 1.1z" fill="#F3F2F2"/><g transform="matrix(-1 0 0 1 494 0)"><use fill="#000" filter="url(#c)" xlink:href="#d"/><use fill="#FFF" xlink:href="#d"/></g><path d="M1158.8 316.6c3-4 5.3-6.7 6.8-8a23 23 0 0115-5.6 30 30 0 0122 14.7c2.4 4.8 3.2 8.6 2.4 11.5a9.5 9.5 0 019.1 4.6c3.3 5 1.5 12 .4 14.4a10.3 10.3 0 01-9 5.8c-37 .9-57.8 1.2-62.3.9-6.7-.5-8.5-3.7-10.3-6-1.5-1.8-3.4-9.3 0-15.7 2.2-4.3 5.4-6.8 9.7-7.6.4-1.9 1.1-3.6 2.1-5.1a13 13 0 014.6-4.3c2-1.1 5.1-1 9.5.4zM1223 97.2c6-8.1 10.5-13.5 13.6-16a46.3 46.3 0 0130-11.2c16 .4 37.5 15 44.6 29.4 4.7 9.6 6.3 17.3 4.7 23a19 19 0 0118.3 9.2c6.6 10 3 24.1.8 28.7a20.7 20.7 0 01-18 11.7c-74.7 1.8-116.5 2.4-125.4 1.7-13.6-1-17-7.4-20.7-11.9-3-3.7-7-18.6-.2-31.4 4.5-8.6 11-13.6 19.5-15.2 1-3.8 2.4-7.2 4.4-10.3a26 26 0 019.2-8.6c4-2.2 10.3-1.9 19.2 1zM90 477.7c9.6-13 17-21.6 22-25.7a74.5 74.5 0 0148.3-18c25.7.7 60.2 24.1 71.6 47.2 7.6 15.5 10.1 27.8 7.6 37 12.5-.9 22.3 4 29.4 14.7 10.6 16 5 38.8 1.3 46.1a44.7 44.7 0 01-13 13.4 26 26 0 01-15.2 5.4c-120.6 2.9-188 3.8-202.4 2.8-22-1.6-27.5-12-33.4-19.2-4.8-5.9-11-30-.2-50.5a43.7 43.7 0 0131.4-24.3c1.5-6.1 3.8-11.6 7-16.6 4.7-7.4 11-11.6 14.8-13.8 6.3-3.5 16.6-3 30.8 1.5zm179-237c2-3 3.7-4.8 4.8-5.7 4.2-3.3 8-4 10.8-4 5.7.1 13.3 5.3 15.8 10.5 1.7 3.4 2.3 6.1 1.7 8.2 2.8-.2 5 .9 6.5 3.2 2.4 3.5 1.1 8.6.3 10.2a7.4 7.4 0 01-6.4 4.2c-26.6.6-41.5.8-44.7.6-4.9-.3-6.1-2.6-7.4-4.2-1-1.3-2.5-6.7 0-11.2 1.5-3 3.9-4.9 6.9-5.4a12.1 12.1 0 011.5-3.7c1-1.6 2.5-2.6 3.3-3 1.4-.8 3.7-.7 6.9.3z" fill="#F3F2F2"/></g></svg>