<svg width="186" height="284" fill="none" xmlns="http://www.w3.org/2000/svg">
  <path fill-rule="evenodd" clip-rule="evenodd" d="M33.452 158s-5.114 8.749-5.114 13.33c0 4.58 2.704 7.67 5.114 7.67 2.41 0 4.757-1.7 4.757-7.67 0-5.971-4.757-13.33-4.757-13.33zM85.873 282.347c14.717-.048 39.917-.051 56.746-1.129 16.83-1.078 30.345-13.446 30.291-16.542-.068-3.887 15.793-10.43 11.433-15.687-5.676-6.843-55.987-11.345-84.779-10.842-45.28.79-82.743 5.414-86.518 18.875-.97 3.455 21.147 7.918 27.905 10.603 5.932 2.356-9.246 6.515-2.93 9.171 8.772 3.688 39.136 5.579 47.852 5.551z" fill="#A1C2FA"/>
  <path fill-rule="evenodd" clip-rule="evenodd" d="M112.749 249.406s20.898-1.5 15.06 4.463c-5.838 5.964 18.576 5.927 20.074 2.113 1.498-3.814 2.714-8.596-7.082-10.676-9.797-2.079-28.369 1.124-28.369 1.124l.317 2.976z" fill="#FFCCE9"/>
  <path d="M119.956 246.572c.766-13.103-1.825-21.366-3.226-28.807-1.401-7.441-3.794-13.883-7.041-20.466-7.886-15.987-10.267-3.212-10.267-3.212s-23 31.375-22.695 39.592c.182 5.722 1.747 20.846 1.26 29.428 0 0 6.378-5.425 9.458-5.258 19.194 1.043 32.004-2.592 32.511-11.277z" fill="#AF2DFD"/>
  <path fill-rule="evenodd" clip-rule="evenodd" d="M78.803 249.498s-3.148-5.649-4.849-4.233c-1.7 1.415-2.584 4.573-1.425 9.457 1.397 5.889 6.969 9.273 6.969 9.273l2.204-1.531-.347-2.353-2.552-10.613z" fill="#AF2DFD"/>
  <path fill-rule="evenodd" clip-rule="evenodd" d="M81.596 235.005l2.51 23.614s1.243-.435 2.061-.523c2.428-.26 4.838-.175 6.017-.175 1.338 0 3.448.106 4.382.067 3.88-.162 7.182.239 7.182.239l3.976-16.125s-.821-6.382-1.604-9.56c-.782-3.179-2.336-6.446-2.336-6.446l-22.188 8.909z" fill="#9100E8"/>
  <path fill-rule="evenodd" clip-rule="evenodd" d="M120.142 250.707a9.937 9.937 0 01-5.25 8.704L102.622 266l-3.432-2.428 4.282-5.563s-6.235-7.433-4.282-14.748c1.953-7.315 20.389-10.963 20.89-1.58.078 1.446.079 5.504.062 9.026z" fill="#AF2DFD"/>
  <path d="M62.161 146.242s-2.438 3.671-7.86 3.942c0 0-3.964 1.162-5.111.655-1.148-.507-.021-2.33 1.942-3.998 1.721-.944 5.604-3.676 8.454-3.018 2.91.66 2.575 2.419 2.575 2.419z" fill="#AF2DFD"/>
  <path d="M111.128 170.118c-1.728-5.077-6.942-4.621-6.942-4.621 4.773-3.406 3.274-9.365 3.274-9.365-1.026-4.047-4.74-3.894-4.74-3.894 1.474-3.404-1.125-5.878-1.125-5.878-1.585-1.355-3.48-1.361-4.743-1.136.445-4.693-2.758-8.871-2.758-8.871-4.217-6.296-8.432-1.699-8.432-1.699-1.03-4.104-4.713-3.935-4.713-3.935-7.153-.753-6.776 3.906-6.776 3.906l.26 1.965s-3.77-4.95-7.91-2.649c-4.14 2.3-2.947 6.959-2.947 6.959-.2-.137-.193.101-.957-.148-.502-.165-2.115.118-2.182.154-6.535 3.474 3.496 10.76 3.496 10.76l4.796-1.741 13.03 1.561 11.078-3.268-1.86 5.277 6.657 28.606s5.227 8.228 9.484 5.902c4.256-2.326.951-6.809.951-6.809 6.602-3.45 3.059-11.076 3.059-11.076z" fill="#FFCCE9"/>
  <path d="M70.833 161.257c-.06.243-.122.548-.243.913.06.426.06.852.121 1.278-.06-.852 0-1.643.122-2.191z" fill="#3BB0E5"/>
  <path d="M81.713 170.935h-3.875l-8.998 2.543c-.46 4.174-.92 9.327-1.116 15.457 14.908-11.609 13.989-18 13.989-18z" fill="#AF2DFD"/>
  <path d="M89.632 267.714h5.722c.365-2.069.67-4.139.974-6.208l-6.258.098c-.182 3.713-.438 6.11-.438 6.11zM98.156 264.509l3.943 3.503c1.537-1.433 3.005-2.668 4.494-4.137l-4.844-3.709c-2.38 2.855-3.593 4.343-3.593 4.343zM85.668 266.984s-.061-2.008-.427-5.417l-6.39-.061 1.095 5.478h5.722z" fill="#000"/>
  <path d="M107.127 193.992c-.244-3.287-6.925-24.108-8.337-29.891-1.412-5.782-3.322-10.825-6.974-15.512-.67-.852-13.557-6.262-15.322-5.897h-.061c-.122 0-.183.061-.304.061-.122 0-.183.061-.305.061-.426.061-.852.183-1.278.304-.06 0-.122.061-.183.061-1.643.487 3.643 36.9-5.73 44.326-.488 16.495 3.887 41.132 10.278 74.123h6.33c-.73-7.791-2.19-14.4-3.408-26.817 8.418 2.265 9.652-.8 9.652-.8.002.181-.9 18.618-1.427 27.617h6.33c1.522-10.104 6.636-29.562 6.636-29.562s2.831-10.015 3.506-14.634c1.388-9.483 1.033-17.655.597-23.44z" fill="#D083FF"/>
  <path d="M82.926 177.281l-15.206 9.565c1.177 4.102 1.181 7.771 1.102 14.678 2.23-.936 5.71-2.263 9.162-6.876 4.884-6.526 4.942-17.367 4.942-17.367z" fill="#AF2DFD"/>
  <path clip-rule="evenodd" d="M68.132 195.254c.956.585 1.466 2.26 1.89 3.448.442 1.24 1.078 2.649.738 3.946-.198.758-3.019 1.874-3.733 1.399-.93-.618-1.261-1.926-1.645-3.001-.37-1.037-1.115-2.748-.884-3.979.23-1.231 2.678-2.399 3.634-1.813zM73.015 205.183c1.149.278 2.127 1.616 2.885 2.55.792.974 1.83 2.049 1.824 3.264-.003.71-2.634 2.371-3.502 2.131-1.131-.313-1.826-1.375-2.512-2.219-.662-.815-1.894-2.127-1.983-3.258-.09-1.131 2.138-2.746 3.288-2.468zM102.643 190.851c-1.028.447-1.767 2.034-2.352 3.152-.61 1.166-1.436 2.473-1.28 3.805.09.778 2.728 2.275 3.501 1.905 1.007-.483 1.518-1.732 2.047-2.743.511-.976 1.487-2.566 1.43-3.817-.058-1.251-2.318-2.748-3.346-2.302zM97.114 200.782c-1.125.17-2.203 1.438-3.028 2.316-.86.915-1.965 1.909-2.093 3.149-.075.724 2.249 2.674 3.102 2.514 1.112-.208 1.89-1.221 2.635-2.015.72-.766 2.036-1.982 2.245-3.126.21-1.144-1.736-3.009-2.861-2.838z" stroke="#FABB05" stroke-width="2.6"/>
  <path d="M68.462 202.016l3.265 5.034" stroke="#EDA606" stroke-width="2.8" stroke-linecap="round"/>
  <path d="M67.568 192.757s-.975 1.268-.787 2.651c.187 1.382.447 2.444.447 2.444" stroke="#EDA606" stroke-width="2.4" stroke-linecap="round" stroke-linejoin="round"/>
  <path d="M101.383 198.35l-3.608 4.794M104.895 187.949s.528 1.853.374 2.782c-.154.93-1.689 2.326-1.689 2.326" stroke="#EDA606" stroke-width="2.4" stroke-linecap="round"/>
  <path d="M98.76 212.345l-6.615-11.219a2.814 2.814 0 00-2.431-1.415l-12.837.224a2.81 2.81 0 00-2.383 1.499l-6.22 11.414a2.87 2.87 0 00.05 2.831l6.615 11.284a2.87 2.87 0 002.433 1.467l12.837-.224a2.86 2.86 0 002.382-1.543l6.22-11.446a2.939 2.939 0 00-.05-2.872z" fill="#4285F4"/>
  <path opacity=".07" d="M91.788 214.778l-8.965-5.012.756 3.255-3.383-3.238.736 4.947-2.705 6.936 7.223 6.881 4.824-.084a2.83 2.83 0 002.348-1.481l4.162-7.436-4.996-4.768z" fill="#000"/>
  <path d="M81.928 214.725l-1.732-5.44-2.21-1.485 2.214 6.955-1.97 7.028 2.157-1.56 1.54-5.498z" fill="#fff"/>
  <path fill-rule="evenodd" clip-rule="evenodd" d="M83.902 214.691l-2.215-6.963 10.148 6.824-9.903 7.174 1.97-7.035zm-.44-4.571l1.134 3.558 4.06-.07-5.194-3.488z" fill="#fff"/>
  <path d="M93.74 152.867c-1.27-2.671-2.256-7.612-6.183-9.748-1.887-1.027-6.05-1.794-10.145-1.604-4.237.197-8.399 1.39-9.917 2.566-1.362 1.028-2.788 2.175-4.024 3.486l-.05.035c-.1.07-.114.155-.214.225-.1.07-.115.154-.215.224-.314.294-.593.639-.872.983-.05.035-.065.119-.115.154-1.067 1.342-1.944 2.848-2.806 4.269-2.797 4.708-5.285 9.645-7.568 14.661-2.089 4.658-4.95 9.485-3.478 14.771 1.152 3.874 3.92 6.766 7.7 8.132 5.176 1.874 10.658 2.225 14.97-1.166.286-.233 5.157-2.881 9.215-7.236 2.557-2.745 4.528-7.182 5.654-8.929 4.899-7.597 9.49-17.787 8.047-20.823z" fill="#D083FF"/>
  <mask id="a" maskUnits="userSpaceOnUse" x="47" y="141" width="48" height="52">
    <path d="M93.74 152.867c-1.27-2.671-2.256-7.612-6.183-9.748-1.887-1.027-6.05-1.794-10.145-1.604-4.237.197-8.399 1.39-9.917 2.566-1.362 1.028-2.788 2.175-4.024 3.486l-.05.035c-.1.07-.114.155-.214.225-.1.07-.115.154-.215.224-.314.294-.593.639-.872.983-.05.035-.065.119-.115.154-1.067 1.342-1.944 2.848-2.806 4.269-2.797 4.708-5.285 9.645-7.568 14.661-2.089 4.658-4.95 9.485-3.478 14.771 1.152 3.874 3.92 6.766 7.7 8.132 5.176 1.874 10.658 2.225 14.97-1.166.286-.233 5.157-2.881 9.215-7.236 2.557-2.745 4.528-7.182 5.654-8.929 4.899-7.597 9.49-17.787 8.047-20.823z" fill="#fff"/>
  </mask>
  <g mask="url(#a)">
    <path d="M51.276 186.97s3.174-.68 6.276-.676c3.103.004 9.724 2 9.724 2" stroke="#000" stroke-width="1.5" stroke-linecap="round"/>
  </g>
  <path fill-rule="evenodd" clip-rule="evenodd" d="M68.212 162.368c-.28-.616.73-.958 1.19-.462.876.945 2.058 1.801 3.348 1.563.954-.176 1.829-.926 2.558-1.815.316-.386 1.225-.014 1 .433-.46.914-1.535 2.346-2.882 2.802-1.169.396-2.619-.102-3.114-.331-.364-.169-1.57-1.024-2.1-2.19zM61.96 162.4c.358-.477-.447-.961-.937-.62-.939.654-2.13 1.177-3.213.737-2.225-.905-2.173-2.135-2.493-1.516-.438.849.556 1.974 1.643 2.609.943.552 2.295.389 2.768.283.349-.078 1.555-.591 2.231-1.493z" fill="#000"/>
  <path d="M83.811 158.794l.021-.401-7.989-.419-.523 9.986c5.236.275 8.163-2.91 8.491-9.166z" fill="#000"/>
  <path d="M66.855 157.503c-.326 6.22 2.595 10.15 8.465 10.457l.523-9.986-8.988-.471zM48.88 156.561c-.326 6.22 2.595 10.149 8.464 10.457l.524-9.986-8.988-.471z" fill="#99A0A7"/>
  <path d="M63.838 157.748l.021-.402-7.989-.419-.523 9.986c5.236.275 8.163-2.91 8.491-9.165z" fill="#000"/>
  <path d="M92.734 158.006L49.2 155.724c-.937-.049-1.02 1.532-.083 1.581l43.533 2.281c.937.049 1.02-1.531.083-1.58zM54.495 178.892h-1.34c-1.034 0-1.034 1.582 0 1.582h1.34c1.035 0 1.035-1.582 0-1.582zM63.32 178.892h-1.339c-1.034 0-1.034 1.582 0 1.582h1.34c.973 0 .973-1.582 0-1.582z" fill="#000"/>
  <path d="M89.717 146.431s9.109 3.145 10.94 4.363c1.891 1.209 5.742 3.25-1.54 3.474 0 0-8.11.033-12.13-3.643l2.73-4.194z" fill="#AF2DFD"/>
  <path fill-rule="evenodd" clip-rule="evenodd" d="M35.217 161.879s.638-.907 1.679-1.342c2.333-.977 4.896-1.922 4.807-2.128-.179-.416-7.899-.012-7.899-.012l1.413 3.482z" fill="#A1C2FA"/>
  <path fill-rule="evenodd" clip-rule="evenodd" d="M12.627 193S9 198.833 9 201.886C9 204.94 10.918 207 12.627 207c1.708 0 3.373-1.134 3.373-5.114S12.627 193 12.627 193z" fill="#E8F0FE"/>
  <path d="M50.49 150.192l-5.734 2.213a21.915 21.915 0 014.811 4.711l7.896-1.24c-1.739-2.415-4.234-4.396-6.974-5.684zM60.482 146.385l-7.924 3.015c2.696 1.475 5.025 3.654 6.714 6.195l9.224-1.418c-2-3.308-4.791-5.874-8.014-7.792zM42.985 153.11l-6.147 2.37c1.06.946 2.07 2.019 2.965 3.163l8.017-1.252c-1.367-1.652-3.026-3.157-4.835-4.281zM67.578 143.687l-5.264 1.988c3.173 2.044 5.913 4.737 7.869 8.232l5.304-.83c-1.927-3.864-4.583-6.992-7.909-9.39zM35.243 156.109c-.878.443-2.264 1.359-1.75 2.352.674 1.408 3.354.623 3.354.623l1.208-.166c-.884-1.023-1.823-1.979-2.812-2.809zM76.675 151.995l-1.067-5.222c-3.613-5.921-4.184-4.522-4.184-4.522l-2.07.792c3.018 2.363 5.477 5.325 7.322 8.952z" fill="#E4594F"/>
  <path d="M35.95 155.803s-.354.153-.762.372c.989.83 1.928 1.786 2.746 2.753l1.808-.28a24.463 24.463 0 00-2.965-3.162l-.828.317zM44.817 152.399l-1.832.711c1.809 1.124 3.468 2.629 4.835 4.281l1.808-.28c-1.377-1.774-2.986-3.405-4.811-4.712zM52.503 149.466l-2.008.787a18.712 18.712 0 016.973 5.683l1.748-.275c-1.689-2.541-4.018-4.72-6.713-6.195zM62.314 145.675l-1.832.71c3.223 1.918 6.008 4.424 8.014 7.792l1.687-.27c-2.01-3.429-4.691-6.127-7.869-8.232zM75.432 153.143l.477-.084a.88.88 0 00.706-1.059 26.187 26.187 0 00-7.321-8.952l-1.771.705c3.38 2.332 6.037 5.46 7.909 9.39z" fill="#fff"/>
  <path d="M91.024 148.815c-4.308 3.266-5.43-1.314-5.43-1.314.092 2.296-.852 5.721-5.887 4.149-5.034-1.571-2.963-6.774-2.963-6.774s-1.44 1.744-4.007.064c-2.567-1.681-.47-4.254-.47-4.254-.486.287 1.888-2.887 1.888-2.887l8.482-.431 7.003 2.619s1.698 3.844 1.728 4.996c.075 2.84 3.965.565-.344 3.832zM144.898 248s3.251.43 3.802 4.824c.551 4.394-8.354 13.921-28.185 6.708l-.773-.371s1.126 3.183-2.36 3.781c-3.489.562-3.59-3.136-3.647-3.593-.057-.457-.428-7.763 15.247-7.044 0 0 9.021-2.512 9.258-2.648.206-.096 6.658-1.657 6.658-1.657z" fill="#FFCCE9"/>
  <path fill-rule="evenodd" clip-rule="evenodd" d="M100.246 23.81S92.422 13.118 88.33 9.827C78.282 1.745 68.74-.156 62.144.01 48.217.36 29.547 13.139 23.357 25.744c-6.19 12.605-4.119 20.13-4.119 20.13s-10.15-.692-15.916 8.01C-2.444 62.585.645 75.022 2.578 79.03c.773 1.602 2.784 3.607 4.876 5.407 3.804 3.273 8.714 4.753 13.731 4.871 23.933.564 96.441 2.194 106.35 1.469 11.895-.87 14.913-6.5 18.098-10.453 2.588-3.213 6.007-16.303.12-27.496-5.887-11.193-17.003-13.291-17.003-13.291s-1.223-4.968-3.791-8.998c-2.568-4.03-5.933-6.327-8.062-7.526-5.089-2.864-16.651.797-16.651.797z" fill="#F3F2F2"/>
  <g filter="url(#filter0_d)">
    <path fill-rule="evenodd" clip-rule="evenodd" d="M123.97 50.484s-5.461-7.402-8.317-9.68c-7.013-5.596-13.673-6.912-18.278-6.797-9.72.242-22.752 9.089-27.072 17.816-4.32 8.727-2.875 13.936-2.875 13.936s-7.085-.479-11.11 5.545c-4.024 6.024-1.867 14.634-.519 17.409.322.662.953 1.424 1.72 2.196 3.514 3.538 8.553 4.857 13.539 4.972 18.595.43 65.333 1.445 71.96.964 8.303-.602 10.409-4.499 12.632-7.236 1.806-2.225 4.193-11.287.084-19.036-4.109-7.748-11.868-9.201-11.868-9.201s-.854-3.44-2.646-6.23c-1.793-2.79-4.141-4.38-5.627-5.21-3.553-1.983-11.623.552-11.623.552z" fill="#EAE8E8"/>
  </g>
  <path fill-rule="evenodd" clip-rule="evenodd" d="M129.993 151.347s-4.663 7.916-4.663 12.06c0 4.143 2.466 6.94 4.663 6.94s4.337-1.539 4.337-6.94c0-5.402-4.337-12.06-4.337-12.06z" fill="#A1C2FA"/>
  <path fill-rule="evenodd" clip-rule="evenodd" d="M127.145 108S123 115.083 123 118.791c0 3.707 2.192 6.209 4.145 6.209 1.953 0 3.855-1.376 3.855-6.209S127.145 108 127.145 108z" fill="#E8F0FE"/>
  <path fill-rule="evenodd" clip-rule="evenodd" d="M74.145 108S70 115.083 70 118.791c0 3.707 2.192 6.209 4.145 6.209 1.953 0 3.855-1.376 3.855-6.209S74.145 108 74.145 108z" fill="#A1C2FA"/>
  <path fill-rule="evenodd" clip-rule="evenodd" d="M21.18 113S16 121.333 16 125.695 18.74 133 21.18 133c2.442 0 4.82-1.619 4.82-7.305S21.18 113 21.18 113z" fill="#E8F0FE"/>
  <path fill-rule="evenodd" clip-rule="evenodd" d="M135.627 202S132 208.25 132 211.521c0 3.272 1.918 5.479 3.627 5.479 1.708 0 3.373-1.215 3.373-5.479S135.627 202 135.627 202z" fill="#A1C2FA"/>
  <path fill-rule="evenodd" clip-rule="evenodd" d="M47.627 205S44 211.25 44 214.521c0 3.272 1.918 5.479 3.627 5.479 1.708 0 3.373-1.215 3.373-5.479S47.627 205 47.627 205zM153.627 176S150 182.25 150 185.521c0 3.272 1.918 5.479 3.627 5.479 1.708 0 3.373-1.215 3.373-5.479S153.627 176 153.627 176zM67.723 251.03s-6.631 5.848-5.266 8.884c1.365 3.036 12.767 7.8 12.767 7.8s-8.993-5.679-10.384-8.773c-1.39-3.093 2.883-7.911 2.883-7.911z" fill="#E8F0FE"/>
  <path fill-rule="evenodd" clip-rule="evenodd" d="M59.27 250.03s-9.69 7.71-7.696 11.714c1.995 4.003 18.66 10.286 18.66 10.286s-13.143-7.489-15.176-11.568c-2.033-4.08 4.213-10.432 4.213-10.432zM153.883 251.03s7.646 5.848 6.072 8.884c-1.574 3.036-14.721 7.8-14.721 7.8s10.369-5.679 11.973-8.773c1.603-3.093-3.324-7.911-3.324-7.911z" fill="#E8F0FE"/>
  <path fill-rule="evenodd" clip-rule="evenodd" d="M19.822 246.047s-3.534-6.285-5.692-7.16c-3.232-1.312-4.788.174-5.143.478-1.963 1.683-1.32 4.753 1.613 4.411 4.246-.494 9.222 2.271 9.222 2.271zM21.622 244.898s-.44-5.56.55-7.016c1.483-2.183 3.096-1.848 3.449-1.795 1.954.297 2.853 2.568.856 3.547-2.889 1.416-4.855 5.264-4.855 5.264z" fill="#A1C2FA"/>
  <path fill-rule="evenodd" clip-rule="evenodd" d="M157.9 239.047s3.534-6.285 5.691-7.16c3.233-1.312 4.788.174 5.143.478 1.963 1.683 1.321 4.753-1.613 4.411-4.246-.494-9.221 2.271-9.221 2.271zM156.099 237.898s.439-5.56-.55-7.016c-1.483-2.183-3.096-1.849-3.449-1.795-1.953.297-2.853 2.568-.856 3.547 2.889 1.416 4.855 5.264 4.855 5.264z" fill="#E8F0FE"/>
  <defs>
    <filter id="filter0_d" x="52" y="33" width="108" height="66.972" filterUnits="userSpaceOnUse" color-interpolation-filters="sRGB">
      <feFlood flood-opacity="0" result="BackgroundImageFix"/>
      <feColorMatrix in="SourceAlpha" values="0 0 0 0 0 0 0 0 0 0 0 0 0 0 0 0 0 0 127 0"/>
      <feOffset dy="1"/>
      <feGaussianBlur stdDeviation="1"/>
      <feColorMatrix values="0 0 0 0 0 0 0 0 0 0 0 0 0 0 0 0 0 0 0.08 0"/>
      <feBlend in2="BackgroundImageFix" result="effect1_dropShadow"/>
      <feBlend in="SourceGraphic" in2="effect1_dropShadow" result="shape"/>
    </filter>
  </defs>
</svg>
